<svg width="176" height="26" viewBox="0 0 176 26" fill="none" xmlns="http://www.w3.org/2000/svg">
<path d="M174.824 19.005C174.824 20.8068 174.215 22.2245 172.999 23.258C171.783 24.2915 170.104 24.8083 167.964 24.8083C167.488 24.8083 166.963 24.7763 166.386 24.7122C165.81 24.6574 165.202 24.543 164.562 24.3693C163.921 24.2046 163.263 23.9714 162.586 23.6696C161.918 23.3586 161.251 22.9607 160.583 22.476V22.476C160.451 22.383 160.413 22.2044 160.495 22.0654L162.623 18.4542C162.712 18.3029 162.915 18.2651 163.053 18.3739V18.3739C163.912 18.9318 164.758 19.3663 165.591 19.6773C166.423 19.9791 167.205 20.13 167.937 20.13C168.11 20.13 168.334 20.098 168.609 20.034C168.883 19.9608 169.02 19.7824 169.02 19.4989V19.444C169.02 19.2337 168.833 19.037 168.458 18.8541C168.092 18.6712 167.507 18.4242 166.702 18.1133C165.97 17.848 165.275 17.5691 164.617 17.2764C163.958 16.9745 163.373 16.6133 162.86 16.1925C162.357 15.7718 161.95 15.2642 161.639 14.6697C161.338 14.0752 161.187 13.3664 161.187 12.5432V12.4883C161.187 11.6286 161.347 10.8466 161.667 10.1423C161.996 9.42892 162.453 8.82985 163.039 8.3451C163.624 7.86035 164.333 7.48535 165.165 7.22011C165.998 6.94573 166.931 6.80853 167.964 6.80853C169.126 6.80853 170.264 6.96402 171.38 7.27499C172.505 7.57681 173.548 8.03413 174.508 8.64692V8.64692C174.638 8.72318 174.683 8.88904 174.609 9.02036L172.547 12.7138C172.457 12.875 172.251 12.9285 172.094 12.8313V12.8313C171.389 12.3923 170.671 12.0539 169.94 11.8161C169.217 11.5783 168.568 11.4594 167.991 11.4594C167.681 11.4594 167.434 11.5097 167.251 11.6103C167.077 11.7018 166.99 11.8435 166.99 12.0356V12.0905C166.99 12.3008 167.196 12.5021 167.607 12.6941C168.019 12.8862 168.586 13.124 169.309 13.4075L169.363 13.435C170.205 13.7459 170.964 14.0706 171.641 14.409C172.327 14.7383 172.903 15.1179 173.369 15.5477C173.836 15.9776 174.193 16.4715 174.44 17.0294C174.696 17.5782 174.824 18.2184 174.824 18.9501V19.005Z" fill="#013934"/>
<path d="M157.218 9.02971C158.579 10.2779 159.282 12.0508 159.358 13.883C159.392 14.6384 159.403 15.3946 159.418 16.1505C159.44 17.1809 159.461 18.211 159.483 19.2423C159.502 20.1219 159.518 21 159.538 21.8786C159.554 22.6109 159.551 23.3422 159.551 24.0745C159.55 24.2674 159.394 24.4238 159.201 24.4238C157.408 24.4238 155.611 24.4238 153.769 24.4238C153.578 24.4238 153.422 24.2698 153.42 24.0785C153.416 23.7124 153.412 23.3443 153.407 22.9676C153.403 22.6575 153.4 22.3469 153.396 22.0363C153.39 21.5471 153.384 21.0583 153.378 20.569C153.376 20.3711 153.374 20.1732 153.371 19.9753C153.366 19.5452 153.361 19.1155 153.356 18.6858C153.353 18.4956 153.35 18.3054 153.348 18.1152C153.342 17.6628 153.337 17.2104 153.334 16.758C153.332 16.5185 153.33 16.2791 153.327 16.0392C153.326 15.9308 153.325 15.822 153.324 15.7136C153.333 15.0273 153.283 14.3437 152.794 13.8051C152.463 13.4794 152.034 13.3628 151.585 13.3214C151.056 13.2974 150.513 13.4482 150.112 13.8012C149.752 14.1769 149.651 14.5963 149.646 15.107C149.646 15.4834 149.638 15.8598 149.635 16.2362C149.633 16.4967 149.63 16.7567 149.628 17.0168C149.623 17.5244 149.618 18.0321 149.613 18.5397C149.607 19.1806 149.601 19.8215 149.594 20.4624C149.591 20.719 149.589 20.9756 149.587 21.2322C149.585 21.4682 149.582 21.7047 149.58 21.9408C149.574 22.655 149.572 23.369 149.558 24.0835C149.554 24.2728 149.399 24.4238 149.21 24.4238C147.426 24.4238 145.623 24.4238 143.792 24.4238C143.599 24.4238 143.443 24.2673 143.443 24.0744C143.443 22.4506 143.443 22.4132 143.454 21.8191C143.468 20.9846 143.481 20.1477 143.495 19.3113C143.512 18.3493 143.528 17.3869 143.543 16.4239C143.556 15.6058 143.576 14.788 143.593 13.97C143.643 12.0242 144.335 10.3655 145.717 8.99244C146.159 8.57475 146.673 8.24788 147.212 7.97328C148.1 7.50258 149.074 7.26685 150.057 7.09892C152.554 6.70565 155.333 7.30326 157.218 9.02971Z" fill="#013934"/>
<path d="M133.447 24.759C132.216 24.759 131.065 24.5259 129.992 24.0597C128.92 23.5935 127.983 22.9595 127.181 22.1576C126.379 21.3557 125.745 20.4187 125.279 19.3464C124.813 18.2742 124.58 17.1227 124.58 15.8919C124.58 14.6612 124.813 13.505 125.279 12.4234C125.745 11.3325 126.379 10.3908 127.181 9.59827C127.983 8.79641 128.92 8.16239 129.992 7.69619C131.065 7.22067 132.216 6.98291 133.447 6.98291C134.678 6.98291 135.834 7.22067 136.916 7.69619C137.997 8.16239 138.939 8.79641 139.741 9.59827C140.543 10.3908 141.177 11.3325 141.643 12.4234C142.109 13.505 142.342 14.6612 142.342 15.8919C142.342 17.1227 142.109 18.2742 141.643 19.3464C141.177 20.4187 140.543 21.3557 139.741 22.1576C138.939 22.9595 137.997 23.5935 136.916 24.0597C135.834 24.5259 134.678 24.759 133.447 24.759ZM133.447 12.885C133.037 12.885 132.65 12.9642 132.286 13.1227C131.923 13.2812 131.606 13.491 131.335 13.7521C131.074 14.0132 130.864 14.3302 130.706 14.7031C130.547 15.0761 130.468 15.8919 130.468 15.8919C130.468 15.8919 130.547 16.6891 130.706 17.0528C130.864 17.4164 131.074 17.7334 131.335 18.0038C131.606 18.2649 131.923 18.4747 132.286 18.6332C132.65 18.7823 133.037 18.8569 133.447 18.8569C133.857 18.8569 134.249 18.7823 134.622 18.6332C134.995 18.4747 135.312 18.2649 135.573 18.0038C135.843 17.7334 136.058 17.4164 136.216 17.0528C136.375 16.6891 136.454 16.3022 136.454 15.8919C136.454 15.0434 136.165 14.3302 135.587 13.7521C135.009 13.174 134.295 12.885 133.447 12.885Z" fill="#013934"/>
<ellipse cx="54.61" cy="3.05325" rx="2.88178" ry="2.70712" fill="#F16423"/>
<path d="M51.9029 24.4483C51.71 24.4483 51.5536 24.2919 51.5536 24.099V7.68158C51.5536 7.48866 51.71 7.33228 51.9029 7.33228H57.3171C57.5101 7.33228 57.6664 7.48867 57.6664 7.68158V24.099C57.6664 24.2919 57.5101 24.4483 57.3171 24.4483H51.9029Z" fill="#013934"/>
<path d="M59.9369 10.8423C59.9369 9.5836 60.1747 8.39946 60.6502 7.28991C61.1257 6.18037 61.7737 5.21068 62.5942 4.38085C63.4147 3.55102 64.3751 2.89834 65.4753 2.42282C66.5756 1.93798 67.755 1.69556 69.0138 1.69556C70.058 1.69556 71.0744 1.87737 72.0627 2.24101C73.0514 2.60139 73.944 3.11289 74.7405 3.7755C74.7547 3.78737 74.7706 3.79727 74.7875 3.80481L74.7957 3.80842C74.8531 3.83393 74.9195 3.82827 74.9718 3.79344V3.79344C75.7736 3.12212 76.6687 2.60464 77.657 2.24101C78.6547 1.87737 79.6757 1.69556 80.72 1.69556C81.988 1.69556 83.1675 1.93798 84.2584 2.42282C85.3586 2.89834 86.319 3.55102 87.1395 4.38085C87.96 5.21068 88.608 6.18037 89.0835 7.28991C89.5684 8.39946 89.8108 9.5836 89.8108 10.8423V24.0989C89.8108 24.2918 89.6544 24.4482 89.4615 24.4482H83.7406C83.5477 24.4482 83.3913 24.2918 83.3913 24.0989V10.8423C83.3913 10.0964 83.1302 9.46239 82.6081 8.94025C82.0952 8.40879 81.4659 8.14305 80.72 8.14305C80.3656 8.14305 80.0253 8.21764 79.699 8.36683C79.3727 8.50669 79.0883 8.69783 78.8458 8.94025C78.6128 9.17335 78.4263 9.45307 78.2864 9.7794C78.1559 10.1057 78.0906 10.46 78.0906 10.8423V24.0989C78.0906 24.2918 77.9342 24.4482 77.7413 24.4482H72.0204C71.8275 24.4482 71.6711 24.2918 71.6711 24.0989V10.8423C71.6711 10.46 71.6012 10.1057 71.4613 9.7794C71.3214 9.45307 71.1303 9.17335 70.8879 8.94025C70.6455 8.69783 70.3611 8.50669 70.0347 8.36683C69.7177 8.21764 69.3774 8.14305 69.0138 8.14305C68.6501 8.14305 68.3051 8.21764 67.9788 8.36683C67.6525 8.50669 67.3681 8.69783 67.1257 8.94025C66.8926 9.17335 66.7014 9.45307 66.5522 9.7794C66.4124 10.1057 66.3425 10.46 66.3425 10.8423V24.0989C66.3425 24.2918 66.1861 24.4482 65.9932 24.4482H60.2862C60.0933 24.4482 59.9369 24.2918 59.9369 24.0989V10.8423Z" fill="#013934"/>
<ellipse cx="95.1377" cy="3.05325" rx="2.88178" ry="2.70712" fill="#1B8C44"/>
<path d="M92.4305 24.4483C92.2376 24.4483 92.0812 24.2919 92.0812 24.099V7.68158C92.0812 7.48866 92.2376 7.33228 92.4305 7.33228H97.8448C98.0377 7.33228 98.1941 7.48867 98.1941 7.68158V24.099C98.1941 24.2919 98.0377 24.4483 97.8448 24.4483H92.4305Z" fill="#013934"/>
<path d="M100.814 24.4482C100.621 24.4482 100.465 24.2919 100.465 24.0989V2.79126C100.465 2.59835 100.621 2.44196 100.814 2.44196H106.228C106.421 2.44196 106.578 2.59835 106.578 2.79126V24.0989C106.578 24.2919 106.421 24.4482 106.228 24.4482H100.814Z" fill="#013934"/>
<path d="M109.197 24.4482C109.004 24.4482 108.848 24.2919 108.848 24.0989V2.79126C108.848 2.59835 109.004 2.44196 109.197 2.44196H114.612C114.804 2.44196 114.961 2.59835 114.961 2.79126V24.0989C114.961 24.2919 114.804 24.4482 114.612 24.4482H109.197Z" fill="#013934"/>
<ellipse cx="120.288" cy="3.05325" rx="2.88178" ry="2.70712" fill="#FDBB26"/>
<path d="M117.581 24.4483C117.388 24.4483 117.231 24.2919 117.231 24.099V7.68158C117.231 7.48866 117.388 7.33228 117.581 7.33228H122.995C123.188 7.33228 123.344 7.48867 123.344 7.68158V24.099C123.344 24.2919 123.188 24.4483 122.995 24.4483H117.581Z" fill="#013934"/>
<path d="M43.6297 7.12068C46.0426 6.74057 48.6973 7.27655 50.5878 8.8743C50.7147 8.98153 50.7405 9.16528 50.6548 9.30758L48.1949 13.3921C48.0931 13.5612 47.8708 13.6126 47.6931 13.5269C47.3655 13.3688 46.9586 13.2269 46.5747 13.1206C46.0539 12.9764 45.699 12.9536 45.1005 13.0485C44.3192 13.1723 44.0522 13.4398 43.6843 13.823C43.3164 14.2062 43.2235 14.6182 43.2183 15.1288C43.2183 15.7656 43.2062 16.4027 43.1999 17.0384C43.1948 17.546 43.19 18.0538 43.1849 18.5615C43.1789 19.2023 43.173 19.8432 43.1661 20.484C43.1612 20.9766 43.1576 21.4699 43.1518 21.9624C43.1459 22.6767 43.126 23.3907 43.1069 24.1052C43.1018 24.2945 42.9469 24.4454 42.7575 24.4454H37.364C37.1711 24.4454 37.0147 24.289 37.0147 24.0961C37.0148 22.4723 37.0156 22.4348 37.026 21.8407C37.0342 21.3581 37.042 20.8749 37.0499 20.3912C37.0618 19.6356 37.0746 18.8788 37.0874 18.1231C37.0965 17.5643 37.1063 17.0049 37.115 16.4455C37.1285 15.6275 37.1485 14.8098 37.1655 13.9918C37.2148 12.0461 37.9077 10.3872 39.2897 9.01423C39.7581 8.57169 40.3045 8.24955 40.8704 7.94994C41.7347 7.50322 42.6772 7.2833 43.6297 7.12068Z" fill="#013934"/>
<path d="M30.007 1.88102C32.4198 1.50098 35.0741 2.03701 36.9646 3.63469C37.0914 3.74192 37.1173 3.92566 37.0316 4.06797L34.5721 8.15191C34.4703 8.32101 34.248 8.37247 34.0702 8.2868C33.7424 8.12891 33.3352 7.98732 32.9513 7.88102C32.4307 7.73689 32.0759 7.71395 31.4777 7.80875C30.6965 7.93256 30.4295 8.20002 30.0617 8.58316C29.6938 8.96637 29.6 9.3783 29.5949 9.88883C29.5948 10.5256 29.5836 11.1633 29.5773 11.799C29.5722 12.3064 29.5668 12.814 29.5617 13.3214C29.5612 13.3761 29.5606 13.4308 29.5601 13.4855C29.5583 13.6796 29.7152 13.838 29.9094 13.838H34.3129C34.5059 13.838 34.6623 13.9944 34.6623 14.1874V19.5317C34.6623 19.7246 34.5059 19.881 34.3129 19.881H29.8583C29.6661 19.881 29.51 20.0362 29.509 20.2284C29.5004 21.757 29.4903 23.3572 29.4806 24.1053C29.4781 24.2946 29.3238 24.4455 29.1344 24.4455H23.7411C23.5481 24.4455 23.3917 24.2907 23.3918 24.0978C23.3918 21.9208 23.3929 17.2004 23.4035 16.6007C23.4117 16.1182 23.419 15.6351 23.4269 15.1515C23.4388 14.3959 23.4512 13.6386 23.464 12.883C23.4731 12.3242 23.4836 11.7646 23.4923 11.2052C23.5058 10.3874 23.5251 9.56983 23.5421 8.75211C23.5914 6.80633 24.2851 5.14759 25.6671 3.77457C26.1355 3.33215 26.6814 3.00967 27.2472 2.71012C28.1115 2.26339 29.0545 2.04363 30.007 1.88102Z" fill="#013934"/>
<path d="M7.19292 13.4352C7.19292 13.6282 7.34931 13.7845 7.54222 13.7845H14.5339C14.7269 13.7845 14.8832 13.6282 14.8832 13.4352V12.0464C14.8832 9.95648 13.9353 7.79045 11.0381 7.79045C8.14085 7.79045 7.19292 10.0482 7.19292 12.0464V13.4352ZM14.8832 20.181C14.8832 19.9881 14.7269 19.8317 14.5339 19.8317H7.54222C7.34931 19.8317 7.19292 19.9881 7.19292 20.181V24.0989C7.19292 24.2918 7.03653 24.4482 6.84361 24.4482H1.30507C1.11105 24.4482 0.954199 24.29 0.955779 24.096L1.05597 11.7938C1.05597 5.03232 4.91406 1.58118 11.0381 1.58118C17.1621 1.58118 21.0188 5.09349 21.0188 11.9234C21.0188 17.7525 21.0949 22.7547 21.1172 24.0956C21.1204 24.291 20.9629 24.4482 20.7675 24.4482H15.2326C15.0396 24.4482 14.8832 24.2918 14.8832 24.0989V20.181Z" fill="#013934"/>
</svg>
